<svg xmlns="http://www.w3.org/2000/svg" version="1.1" xmlns:xlink="http://www.w3.org/1999/xlink" xmlns:svgjs="http://svgjs.dev/svgjs" width="1500" height="1500" viewBox="0 0 1500 1500"><rect width="1500" height="1500" fill="#ffffff"></rect><g transform="matrix(0.6666666666666666,0,0,0.6666666666666666,249.39393939393932,590.240313530087)"><svg viewBox="0 0 396 126" data-background-color="#ffffff" preserveAspectRatio="xMidYMid meet" height="477" width="1500" xmlns="http://www.w3.org/2000/svg" xmlns:xlink="http://www.w3.org/1999/xlink"><g id="tight-bounds" transform="matrix(1,0,0,1,0.24000000000003752,0.3010078465693198)"><svg viewBox="0 0 395.5199999999999 125.39798430686135" height="125.39798430686135" width="395.5199999999999"><g><svg viewBox="0 0 636.7605684280844 201.88231130403784" height="125.39798430686135" width="395.5199999999999"><g transform="matrix(1,0,0,1,241.2405684280844,59.26150892379733)"><svg viewBox="0 0 395.52 83.35929345644318" height="83.35929345644318" width="395.52"><g id="textblocktransform"><svg viewBox="0 0 395.52 83.35929345644318" height="83.35929345644318" width="395.52" id="textblock"><g><svg viewBox="0 0 395.52 83.35929345644318" height="83.35929345644318" width="395.52"><g transform="matrix(1,0,0,1,0,0)"><svg width="395.52" viewBox="0.54 -37.5 181.92000000000002 38.45" height="83.35929345644318" data-palette-color="#111111"><g class="wordmark-text-0" data-fill-palette-color="primary" id="text-0"><path d="M13.84-2L13.84-31.05Q10.79-31.05 8.2-30.79 5.62-30.52 3.76-30.2 1.9-29.88 1-29.76L1-29.76Q1-29.76 1-29.76L1-29.76 1-29.76Q1.03-29.76 0.9-30.3 0.78-30.83 0.66-31.53 0.54-32.23 0.54-32.74L0.54-32.74Q0.54-33.84 1.77-34.18 3-34.52 5.09-34.51 7.18-34.5 9.69-34.5L9.69-34.5 16.85-34.5Q19.09-34.5 23.25-34.58 27.42-34.67 32.3-35.3L32.3-35.3Q32.3-35.3 32.3-35.3L32.3-35.3 32.35-35.3 32.3-35.3Q32.32-35.21 32.53-34.4 32.74-33.59 32.74-32.59L32.74-32.59Q32.74-31.79 32.02-31.43 31.3-31.08 30.14-30.99 28.98-30.91 27.64-30.91L27.64-30.91Q24.88-30.91 22.92-30.97 20.97-31.03 19.6-31.05L19.6-31.05 19.6-7.69Q19.6-4.59 19.9-2.84 20.19-1.1 20.34-0.39L20.34-0.39Q19.63 0 18.63 0.22 17.63 0.44 16.8 0.44L16.8 0.44Q15.53 0.44 14.69-0.09 13.84-0.61 13.84-2L13.84-2ZM33.81-34.64L33.81-36.5Q34.49-36.82 35.86-37.04 37.23-37.26 38.8-37.38 40.38-37.5 41.65-37.5L41.65-37.5Q42.67-37.5 43.21-37.34 43.75-37.18 43.75-36.21L43.75-36.21 43.75-22.95Q43.97-23 44.93-23.44 45.9-23.88 47.32-24.43 48.75-24.98 50.44-25.39 52.12-25.81 53.81-25.81L53.81-25.81Q56.74-25.81 58.24-24.8 59.74-23.8 60.28-22.06 60.81-20.31 60.81-18.04L60.81-18.04 60.81-2.44 65.06-2.44 65.06-0.61Q64.23-0.15 62.33 0.15 60.42 0.44 58.66 0.44L58.66 0.44Q57.18 0.44 56.16 0.01 55.15-0.42 55.15-1.9L55.15-1.9 55.15-17.55Q55.15-20.02 54.5-21.11 53.85-22.19 51.76-22.19L51.76-22.19Q50.73-22.19 49.44-21.98 48.14-21.78 46.91-21.51 45.68-21.24 44.8-21.02 43.92-20.8 43.75-20.75L43.75-20.75 43.75-7.35Q43.75-4.35 44.03-2.69 44.31-1.03 44.46-0.34L44.46-0.34Q43.77 0.02 42.76 0.23 41.75 0.44 40.96 0.44L40.96 0.44Q39.72 0.44 38.91-0.06 38.11-0.56 38.11-1.9L38.11-1.9 38.11-34.64 33.81-34.64ZM68.18-22.51L68.18-24.34Q68.87-24.66 70.23-24.88 71.6-25.1 73.19-25.22 74.78-25.34 76.04-25.34L76.04-25.34Q77.05-25.34 77.6-25.18 78.14-25.02 78.14-24.05L78.14-24.05 78.14-18.19 81.25-22.61Q83.44-25.76 87.08-25.76L87.08-25.76Q87.52-25.76 88.22-25.67 88.91-25.59 89.47-25.29 90.03-25 90.03-24.39L90.03-24.39Q90.03-24.15 89.99-24L89.99-24 88.94-20.56Q88.01-20.85 87.26-20.97 86.52-21.09 85.88-21.09L85.88-21.09Q84.57-21.09 83.37-20.36 82.17-19.63 81.17-18.58 80.17-17.53 79.4-16.52 78.63-15.5 78.14-14.94L78.14-14.94 78.14-7.35Q78.14-4.35 78.41-2.69 78.68-1.03 78.83-0.34L78.83-0.34Q78.17 0.02 77.14 0.23 76.12 0.44 75.34 0.44L75.34 0.44Q74.09 0.44 73.29-0.06 72.48-0.56 72.48-1.9L72.48-1.9 72.48-22.51 68.18-22.51ZM93.62-12.5L93.62-12.5Q93.62-16.38 95.27-19.37 96.92-22.36 100-24.06 103.09-25.76 107.41-25.76L107.41-25.76Q110.66-25.76 112.99-24.41 115.32-23.07 116.57-20.9 117.81-18.73 117.81-16.21L117.81-16.21Q117.81-15.06 117.52-13.92 117.23-12.77 116.41-12.01 115.59-11.25 113.96-11.25L113.96-11.25 99.36-11.25Q99.85-6.86 102.82-4.53 105.8-2.2 110.1-2.2L110.1-2.2Q113.1-2.2 116.35-3.25L116.35-3.25 117.16-1.61Q115.18-0.27 112.64 0.34 110.1 0.95 107.66 0.95L107.66 0.95Q104.97 0.95 102.46 0.11 99.94-0.73 97.95-2.42 95.96-4.1 94.79-6.62 93.62-9.13 93.62-12.5ZM99.31-14.26L111.96-14.26Q112.1-14.75 112.15-15.23 112.2-15.72 112.2-16.26L112.2-16.26Q112.2-17.87 111.5-19.43 110.81-21 109.45-22.02 108.1-23.05 106.12-23.05L106.12-23.05Q103.63-23.05 102.18-21.81 100.72-20.58 100.08-18.58 99.43-16.58 99.31-14.26L99.31-14.26ZM139.54-1.9L139.54-2.15Q139.54-2.17 138.84-1.73 138.15-1.29 136.97-0.71 135.78-0.12 134.34 0.32 132.9 0.76 131.39 0.76L131.39 0.76Q129.26 0.76 127.46-0.01 125.65-0.78 124.55-2.4 123.45-4.03 123.45-6.54L123.45-6.54Q123.45-9.35 125.08-11.04 126.7-12.72 129.56-13.46 132.41-14.21 136.1-14.21L136.1-14.21 139.54-14.21 139.54-16.04Q139.54-17.94 139.3-19.58 139.05-21.22 138.23-22.2 137.42-23.19 135.68-23.19L135.68-23.19Q134.05-23.19 132.38-22.44 130.7-21.68 129.19-20.61 127.68-19.53 126.45-18.55L126.45-18.55 124.45-21.24Q124.09-21.68 124.09-22.14L124.09-22.14Q124.09-22.95 125.09-23.61 126.09-24.27 127.65-24.76 129.21-25.24 130.96-25.5 132.7-25.76 134.19-25.76L134.19-25.76Q137.2-25.76 139.7-24.79 142.2-23.83 143.7-21.69 145.2-19.56 145.2-16.04L145.2-16.04 145.2-2.44 149.45-2.44 149.45-0.61Q148.62-0.15 146.72 0.15 144.81 0.44 143.03 0.44L143.03 0.44Q141.84 0.44 140.72 0.04 139.61-0.37 139.54-1.9L139.54-1.9ZM133.1-2.86L133.1-2.86Q133.95-2.86 135.05-3.08 136.15-3.3 137.17-3.6 138.2-3.91 138.87-4.13 139.54-4.35 139.54-4.35L139.54-4.35 139.54-11.21 135.44-11.21Q134.22-11.21 132.72-10.88 131.22-10.55 130.13-9.61 129.04-8.67 129.04-6.81L129.04-6.81Q129.04-5.08 130.09-3.97 131.14-2.86 133.1-2.86ZM172.55-23.19L172.55-34.64 168.25-34.64 168.25-36.5Q168.93-36.82 170.3-37.04 171.67-37.26 173.25-37.38 174.84-37.5 176.11-37.5L176.11-37.5Q177.11-37.5 177.66-37.34 178.21-37.18 178.21-36.21L178.21-36.21 178.21-2.44 182.46-2.44 182.46-0.61Q181.63-0.15 179.72 0.15 177.82 0.44 176.06 0.44L176.06 0.44Q174.57 0.44 173.56 0.01 172.55-0.42 172.55-1.9L172.55-1.9 172.55-2.29Q172.23-2.08 171.14-1.33 170.06-0.59 168.36 0.09 166.66 0.76 164.49 0.76L164.49 0.76Q161.07 0.76 158.54-1.04 156.02-2.83 154.64-5.82 153.26-8.81 153.26-12.4L153.26-12.4Q153.26-16.38 154.47-19.38 155.68-22.39 158.13-24.07 160.58-25.76 164.29-25.76L164.29-25.76Q166.44-25.76 168.57-25.16 170.69-24.56 172.55-23.19L172.55-23.19ZM172.55-5.15L172.55-20.61Q171.08-21.39 169.47-22.07 167.86-22.75 165.49-22.75L165.49-22.75Q162.17-22.75 160.73-19.81 159.29-16.87 159.29-12.21L159.29-12.21Q159.29-7.5 161-4.87 162.71-2.25 165.81-2.25L165.81-2.25Q167.64-2.25 169.43-3.04 171.23-3.83 172.55-5.15L172.55-5.15Z" fill="#111111" data-fill-palette-color="primary"></path></g></svg></g></svg></g></svg></g></svg></g><g><svg viewBox="0 0 201.88231130403784 201.88231130403784" height="201.88231130403784" width="201.88231130403784"><g><svg></svg></g><g id="icon-0"><svg viewBox="0 0 201.88231130403784 201.88231130403784" height="201.88231130403784" width="201.88231130403784"><g><path d="M0 100.941c0-55.748 45.193-100.941 100.941-100.941 55.748 0 100.941 45.193 100.941 100.941 0 55.748-45.193 100.941-100.941 100.941-55.748 0-100.941-45.193-100.941-100.941zM100.941 194.365c51.596 0 93.424-41.827 93.424-93.424 0-51.596-41.827-93.424-93.424-93.424-51.596 0-93.424 41.827-93.424 93.424 0 51.596 41.827 93.424 93.424 93.424z" data-fill-palette-color="accent" fill="#39cccc" stroke="transparent"></path></g><g transform="matrix(1,0,0,1,43.5225572862486,43.5225572862486)"><svg viewBox="0 0 114.83719673154064 114.83719673154064" height="114.83719673154064" width="114.83719673154064"><g><svg xmlns="http://www.w3.org/2000/svg" xmlns:xlink="http://www.w3.org/1999/xlink" version="1.1" x="0" y="0" viewBox="0 0 100 100" style="enable-background:new 0 0 100 100;" xml:space="preserve" height="114.83719673154064" width="114.83719673154064" class="icon-dxe-0" data-fill-palette-color="accent" id="dxe-0"><g fill="#39cccc" data-fill-palette-color="accent"><path d="M81.177 38.165A30.45 30.45 0 0 1 78.418 50.317C87.427 51.818 87.5 59.155 87.5 62.5 87.5 65.601 87.5 75 75.012 75H62.5C54.357 75 47.07 78.931 42.505 85.01 39.478 82.715 37.5 79.077 37.5 75V62.5C37.5 60.028 37.939 58.081 38.623 56.476 38.257 56.409 37.891 56.25 37.5 56.25H25.635A30.6 30.6 0 0 0 25.012 62.5V75C25.012 88.807 36.194 100 50 100 50 93.091 55.591 87.5 62.5 87.5H75.012C87.5 87.5 100 80.469 100 62.5 100 47.211 91.309 40.125 81.177 38.165" fill="#39cccc" data-fill-palette-color="accent"></path></g><path d="M50 12.5C54.663 12.5 62.5 14.123 62.5 25V37.5C62.5 41.59 60.522 45.221 57.495 47.504 52.93 41.437 45.654 37.5 37.5 37.5H25.012C12.5 37.5 12.5 28.095 12.5 25 12.5 21.265 12.5 12.5 25.012 12.5zM50 0H25.012C12.5 0 0 6.641 0 25 0 42.969 12.5 50 25.012 50H37.5C44.409 50 50 55.604 50 62.5 63.807 62.5 75.012 51.307 75.012 37.5V25C75.012 7.745 62.5 0 50 0" fill="#39cccc" data-fill-palette-color="accent"></path></svg></g></svg></g></svg></g></svg></g></svg></g><defs></defs></svg><rect width="395.5199999999999" height="125.39798430686135" fill="none" stroke="none" visibility="hidden"></rect></g></svg></g></svg>